<svg width="108" height="60" viewBox="0 0 108 60" fill="none" xmlns="http://www.w3.org/2000/svg">
<g clip-path="url(#clip0_11_2)">
<path d="M51.727 11.247C48.5138 7.30868 44.3552 4.30153 39.6631 2.52344C34.9711 0.745359 29.9085 0.258052 24.9769 1.1098C20.0452 1.96154 15.4157 4.12278 11.5468 7.3794C7.67799 10.636 4.70413 14.875 2.91987 19.6765C1.13561 24.4779 0.602866 29.6751 1.37441 34.7533C2.14595 39.8315 4.19501 44.6143 7.31859 48.6281C10.4422 52.6419 14.5319 55.7472 19.1826 57.6365C23.8332 59.5258 28.8835 60.1335 33.833 59.3994L32.8324 52.2729C29.091 52.8278 25.2734 52.3684 21.7578 50.9402C18.2423 49.5121 15.1508 47.1647 12.7896 44.1306C10.4285 41.0965 8.87956 37.4811 8.29633 33.6424C7.71311 29.8037 8.11582 25.875 9.46457 22.2455C10.8133 18.616 13.0613 15.4117 15.9858 12.95C18.9104 10.4882 22.4099 8.8545 26.1379 8.21065C29.8658 7.5668 33.6927 7.93516 37.2395 9.27925C40.7863 10.6233 43.9298 12.8965 46.3588 15.8735L51.727 11.247Z" fill="url(#paint0_linear_11_2)"/>
<path d="M29.842 50V29.7H37.614C39.2573 29.7 40.5575 29.9997 41.5145 30.599C42.4715 31.1887 43.153 31.9523 43.559 32.89C43.965 33.818 44.168 34.7847 44.168 35.79C44.168 36.486 44.0472 37.1917 43.8055 37.907C43.5735 38.6127 43.1965 39.2652 42.6745 39.8645C42.1525 40.4638 41.4758 40.9472 40.6445 41.3145C39.8132 41.6722 38.803 41.851 37.614 41.851H32.365V50H29.842ZM32.365 39.502H37.788C38.745 39.502 39.5038 39.3135 40.0645 38.9365C40.6348 38.5595 41.0408 38.0858 41.2825 37.5155C41.5242 36.9452 41.645 36.37 41.645 35.79C41.645 35.2583 41.5338 34.7025 41.3115 34.1225C41.0988 33.5425 40.7122 33.0543 40.1515 32.658C39.5908 32.252 38.803 32.049 37.788 32.049H32.365V39.502ZM53.4426 50.348C51.4126 50.348 49.8127 49.6568 48.6431 48.2745C47.4734 46.8825 46.8886 44.9927 46.8886 42.605C46.8886 41.01 47.1544 39.6325 47.6861 38.4725C48.2177 37.3125 48.9717 36.4183 49.9481 35.79C50.9341 35.152 52.0989 34.833 53.4426 34.833C54.7959 34.833 55.9607 35.1472 56.9371 35.7755C57.9231 36.3942 58.6771 37.2835 59.1991 38.4435C59.7307 39.6035 59.9966 40.981 59.9966 42.576C59.9966 44.171 59.7307 45.5533 59.1991 46.723C58.6674 47.883 57.9086 48.7772 56.9226 49.4055C55.9462 50.0338 54.7862 50.348 53.4426 50.348ZM53.4426 47.999C54.6896 47.999 55.6659 47.5205 56.3716 46.5635C57.0869 45.5968 57.4446 44.2677 57.4446 42.576C57.4446 40.8747 57.0869 39.5455 56.3716 38.5885C55.6659 37.6315 54.6896 37.153 53.4426 37.153C52.1859 37.153 51.2047 37.6315 50.4991 38.5885C49.7934 39.5358 49.4406 40.8747 49.4406 42.605C49.4406 44.2967 49.7934 45.621 50.4991 46.578C51.2047 47.5253 52.1859 47.999 53.4426 47.999ZM64.0745 50V30.251L66.5975 29.062V50H64.0745ZM76.7683 50.348C74.9413 50.348 73.5831 49.8067 72.6938 48.724C71.8141 47.6413 71.3743 45.9787 71.3743 43.736V35.181H73.8973V44.113C73.8973 45.3697 74.1728 46.3315 74.7238 46.9985C75.2748 47.6655 76.0626 47.999 77.0873 47.999C78.2183 47.999 79.069 47.6752 79.6393 47.0275C80.2193 46.3798 80.5093 45.4277 80.5093 44.171V35.181H83.0323V50H80.5093V48.579C80.0356 49.188 79.4991 49.6375 78.8998 49.9275C78.3101 50.2078 77.5996 50.348 76.7683 50.348ZM92.9675 50.348C91.0825 50.348 89.589 49.652 88.487 48.26C87.3947 46.8583 86.8485 44.9637 86.8485 42.576C86.8485 40.9907 87.095 39.618 87.588 38.458C88.0907 37.298 88.7964 36.4038 89.705 35.7755C90.6234 35.1472 91.7109 34.833 92.9675 34.833C94.4175 34.833 95.6645 35.297 96.7085 36.225V30.251L99.2315 29.062V50H96.7085V48.84C95.7322 49.8453 94.4852 50.348 92.9675 50.348ZM93.3155 47.999C94.0115 47.999 94.6544 47.825 95.244 47.477C95.8434 47.129 96.3315 46.636 96.7085 45.998V39.038C96.3315 38.458 95.8434 37.9988 95.244 37.6605C94.6447 37.3222 94.0019 37.153 93.3155 37.153C92.0685 37.153 91.1019 37.6218 90.4155 38.5595C89.7389 39.4972 89.4005 40.836 89.4005 42.576C89.4005 43.649 89.5649 44.5915 89.8935 45.4035C90.2222 46.2155 90.6814 46.8535 91.271 47.3175C91.8607 47.7718 92.5422 47.999 93.3155 47.999ZM104.032 50V35.181H106.555V50H104.032ZM105.279 32.484C104.844 32.484 104.472 32.3342 104.162 32.0345C103.863 31.7252 103.713 31.353 103.713 30.918C103.713 30.4637 103.863 30.0818 104.162 29.7725C104.472 29.4535 104.844 29.294 105.279 29.294C105.733 29.294 106.11 29.4535 106.41 29.7725C106.719 30.0818 106.874 30.4637 106.874 30.918C106.874 31.353 106.719 31.7252 106.41 32.0345C106.11 32.3342 105.733 32.484 105.279 32.484Z" fill="black"/>
<path d="M46.882 58V51.7H47.665V58H46.882ZM50.7457 58V52.447H48.9907V51.7H53.2837V52.447H51.5287V58H50.7457ZM57.5436 58.108C57.2286 58.108 56.9871 58.0135 56.8191 57.8245C56.6541 57.6355 56.5716 57.364 56.5716 57.01V54.085H55.8246V53.401H56.5716V51.88L57.3546 51.502V53.401H58.4886V54.085H57.3546V56.749C57.3546 56.968 57.3921 57.1285 57.4671 57.2305C57.5451 57.3295 57.6666 57.379 57.8316 57.379C58.0416 57.379 58.2696 57.298 58.5156 57.136L58.4256 57.901C58.2906 57.973 58.1496 58.0255 58.0026 58.0585C57.8586 58.0915 57.7056 58.108 57.5436 58.108ZM61.352 58.108C60.932 58.108 60.569 58.0045 60.263 57.7975C59.957 57.5905 59.7215 57.3055 59.5565 56.9425C59.3915 56.5795 59.309 56.164 59.309 55.696C59.309 55.189 59.3945 54.757 59.5655 54.4C59.7365 54.04 59.975 53.7655 60.281 53.5765C60.587 53.3875 60.944 53.293 61.352 53.293C61.697 53.293 62.0135 53.371 62.3015 53.527C62.5895 53.68 62.819 53.9185 62.99 54.2425C63.164 54.5635 63.251 54.976 63.251 55.48C63.251 55.552 63.248 55.636 63.242 55.732C63.239 55.825 63.233 55.921 63.224 56.02H60.11C60.14 56.299 60.209 56.5435 60.317 56.7535C60.425 56.9635 60.5675 57.1285 60.7445 57.2485C60.9215 57.3655 61.13 57.424 61.37 57.424C61.565 57.424 61.745 57.3895 61.91 57.3205C62.078 57.2515 62.234 57.145 62.378 57.001L62.837 57.514C62.666 57.685 62.453 57.8275 62.198 57.9415C61.946 58.0525 61.664 58.108 61.352 58.108ZM60.101 55.336H62.459C62.459 55.075 62.4155 54.8425 62.3285 54.6385C62.2445 54.4315 62.12 54.2695 61.955 54.1525C61.79 54.0355 61.589 53.977 61.352 53.977C61.019 53.977 60.7325 54.085 60.4925 54.301C60.2555 54.517 60.125 54.862 60.101 55.336ZM66.218 58.108C65.822 58.108 65.4815 58.012 65.1965 57.82C64.9115 57.625 64.6925 57.349 64.5395 56.992C64.3865 56.632 64.31 56.203 64.31 55.705C64.31 55.204 64.388 54.7735 64.544 54.4135C64.7 54.0535 64.922 53.7775 65.21 53.5855C65.501 53.3905 65.849 53.293 66.254 53.293C66.65 53.293 66.986 53.3845 67.262 53.5675C67.538 53.7505 67.739 54.016 67.865 54.364L67.127 54.634C67.052 54.436 66.9395 54.2845 66.7895 54.1795C66.6425 54.0745 66.467 54.022 66.263 54.022C65.891 54.022 65.606 54.166 65.408 54.454C65.21 54.742 65.111 55.159 65.111 55.705C65.111 56.239 65.2085 56.65 65.4035 56.938C65.5985 57.226 65.876 57.37 66.236 57.37C66.467 57.37 66.6635 57.31 66.8255 57.19C66.9905 57.07 67.106 56.902 67.172 56.686L67.901 56.929C67.79 57.307 67.5875 57.598 67.2935 57.802C66.9995 58.006 66.641 58.108 66.218 58.108ZM69.08 58V51.862L69.863 51.502V53.878C70.004 53.683 70.1735 53.5375 70.3715 53.4415C70.5725 53.3425 70.799 53.293 71.051 53.293C71.45 53.293 71.7695 53.3755 72.0095 53.5405C72.2525 53.7055 72.428 53.9425 72.536 54.2515C72.644 54.5575 72.698 54.925 72.698 55.354V58H71.915V55.219C71.915 54.859 71.834 54.568 71.672 54.346C71.513 54.124 71.264 54.013 70.925 54.013C70.574 54.013 70.3085 54.1135 70.1285 54.3145C69.9515 54.5125 69.863 54.808 69.863 55.201V58H69.08ZM74.2656 58V53.401H75.0486V53.869C75.1896 53.674 75.3591 53.53 75.5571 53.437C75.7551 53.341 75.9816 53.293 76.2366 53.293C76.7946 53.293 77.2086 53.4625 77.4786 53.8015C77.7486 54.1375 77.8836 54.655 77.8836 55.354V58H77.1006V55.219C77.1006 54.832 77.0136 54.535 76.8396 54.328C76.6686 54.118 76.4256 54.013 76.1106 54.013C75.7596 54.013 75.4941 54.1135 75.3141 54.3145C75.1371 54.5125 75.0486 54.808 75.0486 55.201V58H74.2656ZM81.2327 58.108C80.6027 58.108 80.1062 57.8935 79.7432 57.4645C79.3802 57.0325 79.1987 56.446 79.1987 55.705C79.1987 55.21 79.2812 54.7825 79.4462 54.4225C79.6112 54.0625 79.8452 53.785 80.1482 53.59C80.4542 53.392 80.8157 53.293 81.2327 53.293C81.6527 53.293 82.0142 53.3905 82.3172 53.5855C82.6232 53.7775 82.8572 54.0535 83.0192 54.4135C83.1842 54.7735 83.2667 55.201 83.2667 55.696C83.2667 56.191 83.1842 56.62 83.0192 56.983C82.8542 57.343 82.6187 57.6205 82.3127 57.8155C82.0097 58.0105 81.6497 58.108 81.2327 58.108ZM81.2327 57.379C81.6197 57.379 81.9227 57.2305 82.1417 56.9335C82.3637 56.6335 82.4747 56.221 82.4747 55.696C82.4747 55.168 82.3637 54.7555 82.1417 54.4585C81.9227 54.1615 81.6197 54.013 81.2327 54.013C80.8427 54.013 80.5382 54.1615 80.3192 54.4585C80.1002 54.7525 79.9907 55.168 79.9907 55.705C79.9907 56.23 80.1002 56.641 80.3192 56.938C80.5382 57.232 80.8427 57.379 81.2327 57.379ZM84.5322 58V51.871L85.3152 51.502V58H84.5322ZM88.6067 58.108C87.9767 58.108 87.4802 57.8935 87.1172 57.4645C86.7542 57.0325 86.5727 56.446 86.5727 55.705C86.5727 55.21 86.6552 54.7825 86.8202 54.4225C86.9852 54.0625 87.2192 53.785 87.5222 53.59C87.8282 53.392 88.1897 53.293 88.6067 53.293C89.0267 53.293 89.3882 53.3905 89.6912 53.5855C89.9972 53.7775 90.2312 54.0535 90.3932 54.4135C90.5582 54.7735 90.6407 55.201 90.6407 55.696C90.6407 56.191 90.5582 56.62 90.3932 56.983C90.2282 57.343 89.9927 57.6205 89.6867 57.8155C89.3837 58.0105 89.0237 58.108 88.6067 58.108ZM88.6067 57.379C88.9937 57.379 89.2967 57.2305 89.5157 56.9335C89.7377 56.6335 89.8487 56.221 89.8487 55.696C89.8487 55.168 89.7377 54.7555 89.5157 54.4585C89.2967 54.1615 88.9937 54.013 88.6067 54.013C88.2167 54.013 87.9122 54.1615 87.6932 54.4585C87.4742 54.7525 87.3647 55.168 87.3647 55.705C87.3647 56.23 87.4742 56.641 87.6932 56.938C87.9122 57.232 88.2167 57.379 88.6067 57.379ZM93.4149 59.917L93.0369 59.305C93.4449 59.281 93.7779 59.2255 94.0359 59.1385C94.2969 59.0515 94.4889 58.9285 94.6119 58.7695C94.7379 58.6105 94.8009 58.411 94.8009 58.171V57.55C94.5249 57.922 94.1289 58.108 93.6129 58.108C93.2349 58.108 92.9049 58.0075 92.6229 57.8065C92.3409 57.6055 92.1219 57.325 91.9659 56.965C91.8099 56.602 91.7319 56.179 91.7319 55.696C91.7319 55.207 91.8099 54.7825 91.9659 54.4225C92.1249 54.0625 92.3469 53.785 92.6319 53.59C92.9169 53.392 93.2529 53.293 93.6399 53.293C93.8709 53.293 94.0869 53.3365 94.2879 53.4235C94.4919 53.5075 94.6629 53.626 94.8009 53.779V53.401H95.5839V57.874C95.5839 58.201 95.5404 58.4875 95.4534 58.7335C95.3664 58.9825 95.2329 59.191 95.0529 59.359C94.8729 59.527 94.6464 59.656 94.3734 59.746C94.1034 59.839 93.7839 59.896 93.4149 59.917ZM93.7749 57.379C93.9729 57.379 94.1649 57.319 94.3509 57.199C94.5399 57.079 94.6899 56.923 94.8009 56.731V54.625C94.6989 54.448 94.5489 54.3025 94.3509 54.1885C94.1559 54.0715 93.9639 54.013 93.7749 54.013C93.3699 54.013 93.0594 54.157 92.8434 54.445C92.6304 54.733 92.5239 55.15 92.5239 55.696C92.5239 56.038 92.5749 56.335 92.6769 56.587C92.7819 56.839 92.9274 57.034 93.1134 57.172C93.3024 57.31 93.5229 57.379 93.7749 57.379ZM97.0822 58V53.401H97.8652V58H97.0822ZM97.4692 52.564C97.3342 52.564 97.2187 52.5175 97.1227 52.4245C97.0297 52.3285 96.9832 52.213 96.9832 52.078C96.9832 51.937 97.0297 51.8185 97.1227 51.7225C97.2187 51.6235 97.3342 51.574 97.4692 51.574C97.6102 51.574 97.7272 51.6235 97.8202 51.7225C97.9162 51.8185 97.9642 51.937 97.9642 52.078C97.9642 52.213 97.9162 52.3285 97.8202 52.4245C97.7272 52.5175 97.6102 52.564 97.4692 52.564ZM101.131 58.108C100.711 58.108 100.348 58.0045 100.042 57.7975C99.7363 57.5905 99.5008 57.3055 99.3358 56.9425C99.1708 56.5795 99.0883 56.164 99.0883 55.696C99.0883 55.189 99.1738 54.757 99.3448 54.4C99.5158 54.04 99.7543 53.7655 100.06 53.5765C100.366 53.3875 100.723 53.293 101.131 53.293C101.476 53.293 101.793 53.371 102.081 53.527C102.369 53.68 102.598 53.9185 102.769 54.2425C102.943 54.5635 103.03 54.976 103.03 55.48C103.03 55.552 103.027 55.636 103.021 55.732C103.018 55.825 103.012 55.921 103.003 56.02H99.8893C99.9193 56.299 99.9883 56.5435 100.096 56.7535C100.204 56.9635 100.347 57.1285 100.524 57.2485C100.701 57.3655 100.909 57.424 101.149 57.424C101.344 57.424 101.524 57.3895 101.689 57.3205C101.857 57.2515 102.013 57.145 102.157 57.001L102.616 57.514C102.445 57.685 102.232 57.8275 101.977 57.9415C101.725 58.0525 101.443 58.108 101.131 58.108ZM99.8803 55.336H102.238C102.238 55.075 102.195 54.8425 102.108 54.6385C102.024 54.4315 101.899 54.2695 101.734 54.1525C101.569 54.0355 101.368 53.977 101.131 53.977C100.798 53.977 100.512 54.085 100.272 54.301C100.035 54.517 99.9043 54.862 99.8803 55.336ZM105.472 58.108C105.148 58.108 104.836 58.039 104.536 57.901C104.239 57.76 103.996 57.571 103.807 57.334L104.365 56.857C104.527 57.031 104.707 57.166 104.905 57.262C105.103 57.358 105.298 57.406 105.49 57.406C105.76 57.406 105.97 57.355 106.12 57.253C106.27 57.148 106.345 57.004 106.345 56.821C106.345 56.701 106.311 56.593 106.242 56.497C106.176 56.401 106.065 56.3095 105.909 56.2225C105.756 56.1355 105.55 56.044 105.292 55.948C104.785 55.759 104.421 55.5535 104.199 55.3315C103.98 55.1095 103.87 54.835 103.87 54.508C103.87 54.148 104.013 53.8555 104.298 53.6305C104.586 53.4055 104.959 53.293 105.418 53.293C105.733 53.293 106.023 53.353 106.287 53.473C106.551 53.59 106.777 53.761 106.966 53.986L106.426 54.436C106.15 54.142 105.811 53.995 105.409 53.995C105.172 53.995 104.985 54.0415 104.847 54.1345C104.712 54.2245 104.644 54.349 104.644 54.508C104.644 54.661 104.721 54.796 104.874 54.913C105.03 55.027 105.31 55.159 105.715 55.309C106.045 55.429 106.312 55.5595 106.516 55.7005C106.723 55.8415 106.873 56.002 106.966 56.182C107.062 56.362 107.11 56.569 107.11 56.803C107.11 57.208 106.965 57.5275 106.674 57.7615C106.383 57.9925 105.982 58.108 105.472 58.108Z" fill="black"/>
<path d="M44.8046 16.3377C42.6937 13.8154 40.0077 11.8693 36.9845 10.6717C33.9613 9.47409 30.6942 9.06201 27.4726 9.47195C24.2509 9.88189 21.1742 11.1012 18.515 13.0219C15.8558 14.9425 13.6961 17.5052 12.2272 20.483C10.7584 23.4609 10.0257 26.7618 10.0941 30.0935C10.1625 33.4252 11.0299 36.6849 12.6195 39.5837C14.209 42.4825 16.4716 44.931 19.2069 46.7124C21.9422 48.4937 25.0656 49.5529 28.3007 49.7961L28.6716 44.8627C26.2261 44.6789 23.865 43.8782 21.7974 42.5317C19.7297 41.1851 18.0194 39.3342 16.8178 37.143C15.6163 34.9517 14.9606 32.4877 14.9089 29.9692C14.8572 27.4507 15.411 24.9554 16.5213 22.7044C17.6316 20.4535 19.2642 18.5163 21.2744 17.0644C23.2845 15.6125 25.6103 14.6908 28.0456 14.381C30.4808 14.0711 32.9505 14.3826 35.2358 15.2879C37.5211 16.1931 39.5515 17.6643 41.1471 19.5709L44.8046 16.3377Z" fill="url(#paint1_linear_11_2)"/>
</g>
<defs>
<linearGradient id="paint0_linear_11_2" x1="19.6738" y1="17.8722" x2="48.1795" y2="65.3494" gradientUnits="userSpaceOnUse">
<stop stop-color="#48B1D2"/>
<stop offset="1" stop-color="#2D35FC" stop-opacity="0"/>
</linearGradient>
<linearGradient id="paint1_linear_11_2" x1="22.8188" y1="21.2181" x2="52.9115" y2="35.5314" gradientUnits="userSpaceOnUse">
<stop stop-color="#D32ED7"/>
<stop offset="1" stop-color="#B111E9" stop-opacity="0"/>
</linearGradient>
<clipPath id="clip0_11_2">
<rect width="108" height="60" fill="white"/>
</clipPath>
</defs>
</svg>
